<?xml version="1.0" encoding="UTF-8" standalone="no"?>
<!DOCTYPE svg PUBLIC "-//W3C//DTD SVG 1.1//EN" "http://www.w3.org/Graphics/SVG/1.1/DTD/svg11.dtd">
<svg width="100%" height="100%" viewBox="0 0 234 234" version="1.1" xmlns="http://www.w3.org/2000/svg" xmlns:xlink="http://www.w3.org/1999/xlink" xml:space="preserve" xmlns:serif="http://www.serif.com/" style="fill-rule:evenodd;clip-rule:evenodd;stroke-linejoin:round;stroke-miterlimit:1.41421;">
    <g transform="matrix(1,0,0,1,-333.159,-2211.92)">
        <g transform="matrix(1,0,0,1,0,2028.38)">
            <g transform="matrix(1,0,0,1,0,-0.102)">
                <path d="M450.064,183.646C514.586,183.646 566.969,236.029 566.969,300.551C566.969,365.073 514.586,417.456 450.064,417.456C385.542,417.456 333.159,365.073 333.159,300.551C333.159,236.029 385.542,183.646 450.064,183.646ZM525.8,305.482C525.587,297.278 523.413,291.232 519.276,287.343C515.139,283.454 508.828,281.439 500.342,281.297C498.716,262.345 493.66,247.831 485.174,237.754C476.688,227.677 465.232,222.639 450.806,222.639C441.189,222.639 433.251,225.45 426.993,231.072C420.735,236.694 417.606,243.747 417.606,252.233C417.606,262.77 422.768,271.238 433.092,277.638C443.417,284.037 457.312,287.237 474.779,287.237L477.749,287.237L477.749,321.923C477.749,340.45 475.769,353.48 471.809,361.011C467.849,368.542 461.308,372.307 452.185,372.307C444.053,372.307 438.095,369.762 434.312,364.67C430.529,359.579 428.637,351.482 428.637,340.38L428.637,314.816C428.637,302.653 426.586,293.708 422.485,287.98C418.383,282.252 411.984,279.388 403.286,279.388C397.487,279.388 392.732,281.545 389.019,285.858C385.306,290.172 383.45,295.758 383.45,302.618C383.45,302.618 383.486,302.954 383.556,303.625C383.627,304.297 383.662,304.987 383.662,305.694L388.011,305.694C388.011,300.248 388.931,296.094 390.769,293.23C392.608,290.366 395.26,288.934 398.725,288.934C401.907,288.934 404.258,290.455 405.778,293.495C407.299,296.536 408.059,301.31 408.059,307.815L408.059,326.908C408.059,344.304 411.542,357.139 418.507,365.413C425.473,373.686 436.239,377.823 450.806,377.823C467.283,377.823 479.8,371.353 488.356,358.412C496.913,345.471 501.191,326.59 501.191,301.769C501.191,299.86 501.12,296.218 500.979,290.844C500.908,289.288 500.837,288.086 500.767,287.237C506.989,287.237 511.604,288.722 514.609,291.692C517.614,294.662 519.152,299.259 519.223,305.482L525.8,305.482ZM477.749,281.297L477.749,277.372C477.749,260.896 475.68,248.521 471.544,240.247C467.407,231.973 461.166,227.837 452.822,227.837C447.094,227.837 442.692,229.569 439.616,233.034C436.54,236.499 435.002,241.449 435.002,247.884C435.002,258.916 438.431,267.243 445.291,272.864C452.15,278.486 462.262,281.297 475.627,281.297L477.749,281.297Z" style="fill:white;"/>
            </g>
        </g>
    </g>
</svg>
