<?xml version="1.0" encoding="UTF-8" standalone="no"?>
<!DOCTYPE svg PUBLIC "-//W3C//DTD SVG 1.1//EN" "http://www.w3.org/Graphics/SVG/1.1/DTD/svg11.dtd">
<svg width="100%" height="100%" viewBox="0 0 800 283" version="1.1" xmlns="http://www.w3.org/2000/svg" xmlns:xlink="http://www.w3.org/1999/xlink" xml:space="preserve" xmlns:serif="http://www.serif.com/" style="fill-rule:evenodd;clip-rule:evenodd;stroke-linejoin:round;stroke-miterlimit:1.41421;">
    <g transform="matrix(1,0,0,1,-261.504,-221.146)">
        <g transform="matrix(0.443951,0,0,0.443951,-8122.07,-449.655)">
            <path d="M18950.8,2048.77L18923.6,2048.77L18923.6,2122.31L18912.5,2122.31L18912.5,2048.77L18885.4,2048.77L18885.4,2039.82L18950.8,2039.82L18950.8,2048.77ZM18972.4,2068.44C18977.1,2062.73 18983.3,2059.88 18991,2059.88C19004.3,2059.88 19010.9,2067.19 19011.1,2081.81L19011.1,2122.31L19000.3,2122.31L19000.3,2081.75C19000.3,2077.33 18999.2,2074.06 18997.2,2071.95C18995.2,2069.84 18992,2068.78 18987.7,2068.78C18984.4,2068.7 18981.2,2069.65 18978.5,2071.5C18975.9,2073.3 18973.8,2075.76 18972.4,2078.64L18972.4,2122.31L18961.6,2122.31L18961.6,2035.29L18972.4,2035.29L18972.4,2068.44ZM19051.9,2068.49C19047.8,2068.4 19043.8,2070.08 19041,2073.1C19038,2076.19 19036.2,2080.5 19035.5,2086.06L19067,2086.06L19067,2085.26C19066.7,2079.93 19065.2,2075.81 19062.6,2072.88C19060,2069.95 19056.4,2068.49 19051.9,2068.49M19053.2,2123.44C19044.7,2123.44 19037.7,2120.72 19032.4,2115.26C19027,2109.8 19024.4,2102.5 19024.4,2093.37L19024.4,2091.43C19024.3,2085.8 19025.5,2080.22 19028,2075.15C19030.2,2070.55 19033.7,2066.66 19038,2063.93C19042.1,2061.26 19047,2059.85 19051.9,2059.88C19060.1,2059.88 19066.4,2062.5 19070.9,2067.75C19075.5,2073 19077.7,2080.52 19077.7,2090.3L19077.7,2094.66L19035.2,2094.66C19035.3,2100.71 19037.1,2105.59 19040.6,2109.31C19044,2112.98 19048.8,2115.02 19053.8,2114.89C19057.2,2114.98 19060.5,2114.21 19063.5,2112.63C19066.2,2111.07 19068.5,2109.03 19070.4,2106.61L19076.9,2111.6C19071.6,2119.5 19063.7,2123.45 19053.2,2123.44M19146.2,2085.54C19136.7,2082.86 19129.7,2079.57 19125.3,2075.66C19121.1,2072.03 19118.7,2066.73 19118.8,2061.19C19118.7,2054.84 19121.7,2048.82 19126.8,2045.06C19132.1,2040.81 19139.1,2038.69 19147.6,2038.69C19153,2038.59 19158.3,2039.71 19163.1,2041.98C19167.4,2043.97 19171.1,2047.1 19173.7,2051.04C19176.2,2054.78 19177.5,2059.18 19177.5,2063.67L19166.2,2063.67C19166.2,2058.69 19164.6,2054.77 19161.3,2051.92C19158.1,2049.07 19153.5,2047.64 19147.6,2047.64C19142.1,2047.64 19137.8,2048.82 19134.7,2051.18C19131.6,2053.5 19129.9,2057.18 19130.1,2061.02C19130.1,2064.38 19131.7,2067.55 19134.4,2069.54C19137.4,2071.86 19142.4,2073.98 19149.4,2075.9C19156.4,2077.84 19161.9,2079.97 19165.9,2082.29C19169.4,2084.25 19172.5,2087.04 19174.7,2090.42C19176.7,2093.7 19177.7,2097.5 19177.6,2101.35C19177.8,2107.69 19174.8,2113.71 19169.6,2117.4C19164.2,2121.43 19157.1,2123.44 19148.2,2123.44C19142.6,2123.5 19137,2122.39 19131.9,2120.18C19127.3,2118.33 19123.2,2115.25 19120.2,2111.27C19117.5,2107.53 19116.1,2103.02 19116.1,2098.4L19127.4,2098.4C19127.2,2103.02 19129.3,2107.45 19133,2110.21C19136.8,2113.1 19141.9,2114.55 19148.2,2114.55C19154,2114.55 19158.6,2113.37 19161.7,2111.04C19164.8,2108.82 19166.5,2105.23 19166.4,2101.46C19166.6,2097.8 19164.9,2094.29 19162,2092.08C19159.1,2089.88 19153.9,2087.7 19146.2,2085.54M19200.3,2061.02L19200.6,2067.81C19205.2,2062.52 19211.4,2059.88 19219.3,2059.88C19228,2059.88 19234,2063.16 19237.2,2069.73C19239.3,2066.74 19242.1,2064.3 19245.4,2062.59C19249.1,2060.7 19253.2,2059.76 19257.3,2059.88C19271.1,2059.88 19278.1,2067 19278.3,2081.23L19278.3,2122.31L19267.5,2122.31L19267.5,2081.86C19267.5,2077.48 19266.5,2074.2 19264.4,2072.02C19262.4,2069.86 19259,2068.78 19254.1,2068.78C19250.5,2068.64 19246.9,2069.89 19244.2,2072.26C19241.5,2074.68 19239.9,2078.04 19239.6,2081.64L19239.6,2122.31L19228.8,2122.31L19228.8,2082.15C19228.8,2073.24 19224.3,2068.78 19215.4,2068.78C19208.3,2068.78 19203.5,2071.71 19200.9,2077.56L19200.9,2122.31L19190.1,2122.31L19190.1,2061.02L19200.3,2061.02ZM19315.5,2114.33C19318.9,2114.31 19322.2,2113.43 19325.1,2111.77C19327.9,2110.24 19330.2,2107.94 19331.7,2105.15L19331.7,2092.57L19323.2,2092.57C19310,2092.57 19303.4,2096.33 19303.4,2103.85C19303.3,2106.8 19304.5,2109.65 19306.8,2111.55C19309.3,2113.49 19312.4,2114.48 19315.5,2114.33M19333.3,2122.31C19332.5,2120.24 19332,2118.07 19331.8,2115.85C19327.2,2120.76 19320.7,2123.51 19313.9,2123.44C19307.7,2123.44 19302.6,2121.73 19298.6,2118.32C19294.8,2115.1 19292.6,2110.32 19292.7,2105.32C19292.7,2098.93 19295.2,2093.97 19300.2,2090.44C19305.1,2086.91 19312.1,2085.14 19321.2,2085.15L19331.7,2085.15L19331.7,2080.33C19331.8,2077.05 19330.6,2073.86 19328.2,2071.58C19326,2069.4 19322.7,2068.33 19318.3,2068.33C19314.9,2068.2 19311.5,2069.19 19308.7,2071.15C19306.1,2073.04 19304.8,2075.33 19304.8,2078.01L19294,2078.01C19294.1,2074.77 19295.2,2071.64 19297.3,2069.15C19299.7,2066.16 19302.8,2063.83 19306.4,2062.37C19310.3,2060.68 19314.6,2059.84 19318.9,2059.88C19326.2,2059.88 19331.8,2061.64 19336,2065.18C19340.1,2068.71 19342.2,2073.57 19342.4,2079.76L19342.4,2107.97C19342.4,2113.61 19343.1,2118.08 19344.6,2121.4L19344.6,2122.31L19333.3,2122.31L19333.3,2122.31ZM19389.6,2070.42C19387.8,2070.14 19386.1,2070.01 19384.3,2070.02C19377.2,2070.02 19372.5,2072.94 19369.9,2078.79L19369.9,2122.31L19359.2,2122.31L19359.2,2061.02L19369.7,2061.02L19369.8,2068.09C19373,2062.86 19378.7,2059.72 19384.8,2059.88C19386.4,2059.8 19388.1,2060.07 19389.6,2060.67L19389.6,2070.42ZM19416.9,2046.16L19416.9,2061.02L19428.7,2061.02L19428.7,2069.11L19416.9,2069.11L19416.9,2107.13C19416.8,2109.1 19417.3,2111.05 19418.5,2112.65C19419.6,2113.87 19421.4,2114.49 19423.9,2114.49C19425.6,2114.43 19427.3,2114.2 19429,2113.81L19429,2122.31C19426.3,2123.05 19423.5,2123.43 19420.7,2123.44C19415.9,2123.44 19412.3,2122.02 19409.9,2119.19C19407.4,2116.36 19406.2,2112.33 19406.2,2107.13L19406.2,2069.11L19394.8,2069.11L19394.8,2061.02L19406.2,2061.02L19406.2,2046.16L19416.9,2046.16ZM19486.8,2039.82L19514.4,2107.13L19542.1,2039.82L19556.6,2039.82L19556.6,2122.31L19545.4,2122.31L19545.4,2090.18L19546.4,2055.52L19518.7,2122.31L19510.1,2122.31L19482.4,2055.69L19483.5,2090.18L19483.5,2122.31L19472.4,2122.31L19472.4,2039.82L19486.8,2039.82ZM19613.4,2116.25C19609.2,2121.04 19603.1,2123.44 19595,2123.44C19588.2,2123.44 19583.1,2121.55 19579.7,2117.76C19576.1,2113.95 19574.3,2108.33 19574.3,2100.9L19574.3,2061.02L19585,2061.02L19585,2100.61C19585,2109.91 19588.9,2114.56 19596.7,2114.55C19604.9,2114.55 19610.4,2111.56 19613,2105.6L19613,2061.02L19623.8,2061.02L19623.8,2122.31L19613.6,2122.31L19613.4,2116.25L19613.4,2116.25ZM19676.7,2106.05C19676.8,2103.46 19675.6,2100.98 19673.5,2099.45C19671.3,2097.89 19667.4,2096.54 19662,2095.4C19657.5,2094.57 19653.2,2093.2 19649,2091.32C19646.2,2090.03 19643.8,2088.09 19642,2085.65C19640.4,2083.37 19639.6,2080.62 19639.7,2077.84C19639.7,2072.82 19641.8,2068.56 19646.2,2065.09C19650.6,2061.62 19656.1,2059.88 19662.9,2059.88C19670,2059.88 19675.8,2061.68 19680.3,2065.27C19684.6,2068.55 19687,2073.66 19686.9,2079.03L19676.1,2079.03C19676.1,2076.12 19674.7,2073.37 19672.4,2071.61C19669.7,2069.49 19666.3,2068.38 19662.9,2068.49C19659,2068.49 19655.9,2069.32 19653.7,2070.98C19651.6,2072.47 19650.4,2074.92 19650.4,2077.5C19650.3,2079.83 19651.5,2082.05 19653.5,2083.22C19655.6,2084.5 19659.3,2085.74 19664.6,2086.9C19669.1,2087.8 19673.5,2089.2 19677.7,2091.09C19680.6,2092.43 19683.1,2094.44 19685.1,2096.95C19686.8,2099.42 19687.6,2102.35 19687.5,2105.32C19687.6,2110.57 19685,2115.53 19680.7,2118.48C19676.3,2121.79 19670.4,2123.44 19663.3,2123.44C19658.7,2123.53 19654.1,2122.64 19649.9,2120.83C19646.3,2119.26 19643.1,2116.75 19640.8,2113.56C19638.7,2110.62 19637.5,2107.08 19637.5,2103.44L19648.3,2103.44C19648.3,2106.75 19649.9,2109.86 19652.6,2111.81C19655.3,2113.86 19658.9,2114.89 19663.3,2114.89C19667.3,2114.89 19670.6,2114.08 19673,2112.48C19675.3,2111.17 19676.7,2108.7 19676.7,2106.05ZM19701.6,2044.76C19701.5,2043.17 19702.1,2041.62 19703.2,2040.45C19704.4,2039.19 19706.2,2038.54 19707.9,2038.69C19708.1,2038.67 19708.2,2038.67 19708.4,2038.67C19711.6,2038.67 19714.2,2041.28 19714.2,2044.45C19714.2,2044.56 19714.2,2044.66 19714.2,2044.76C19714.3,2046.33 19713.7,2047.86 19712.6,2049C19711.3,2050.21 19709.6,2050.83 19707.9,2050.71C19706.2,2050.85 19704.4,2050.22 19703.2,2049C19702.1,2047.86 19701.5,2046.33 19701.6,2044.76M19713.2,2122.31L19702.4,2122.31L19702.4,2061.02L19713.2,2061.02L19713.2,2122.31ZM19755.6,2114.89C19759.2,2114.96 19762.8,2113.75 19765.6,2111.49C19768.4,2109.48 19770.1,2106.38 19770.4,2102.99L19780.6,2102.99C19780.3,2106.62 19779,2110.1 19776.8,2113.02C19774.4,2116.26 19771.3,2118.87 19767.7,2120.61C19763.9,2122.48 19759.8,2123.45 19755.6,2123.44C19747,2123.44 19740.2,2120.66 19735.1,2115.09C19730.1,2109.52 19727.6,2101.9 19727.6,2092.23L19727.6,2090.48C19727.5,2084.99 19728.6,2079.55 19730.9,2074.56C19733,2070.09 19736.4,2066.32 19740.6,2063.73C19745.1,2061.08 19750.3,2059.75 19755.5,2059.88C19762.6,2059.88 19768.4,2061.93 19773.1,2066.05C19777.8,2070.17 19780.2,2075.51 19780.6,2082.09L19770.4,2082.09C19770,2074.31 19763.3,2068.22 19755.5,2068.49C19750,2068.49 19745.8,2070.41 19742.8,2074.24C19739.8,2078.07 19738.3,2083.62 19738.3,2090.87L19738.3,2092.85C19738.3,2099.92 19739.8,2105.36 19742.8,2109.16C19745.8,2112.98 19750,2114.89 19755.6,2114.89M19871.6,2084.18L19834.9,2084.18L19834.9,2113.41L19877.5,2113.41L19877.5,2122.31L19823.7,2122.31L19823.7,2039.82L19876.9,2039.82L19876.9,2048.77L19834.9,2048.77L19834.9,2075.29L19871.6,2075.29L19871.6,2084.18ZM19913.8,2114.89C19917.5,2114.96 19921,2113.76 19923.9,2111.49C19926.6,2109.45 19928.3,2106.36 19928.6,2102.99L19938.8,2102.99C19938.6,2106.62 19937.3,2110.11 19935.1,2113.02C19932.7,2116.26 19929.5,2118.87 19925.9,2120.61C19922.1,2122.5 19918,2123.47 19913.8,2123.44C19905.2,2123.44 19898.4,2120.66 19893.4,2115.09C19888.3,2109.52 19885.8,2101.9 19885.8,2092.23L19885.8,2090.48C19885.7,2084.98 19886.8,2079.53 19889.2,2074.56C19891.3,2070.09 19894.6,2066.33 19898.8,2063.73C19903.3,2061.08 19908.5,2059.75 19913.8,2059.88C19920.8,2059.88 19926.7,2061.93 19931.3,2066.05C19936,2070.09 19938.7,2075.92 19938.8,2082.09L19928.6,2082.09C19928.4,2078.35 19926.8,2074.84 19924,2072.32C19921.2,2069.77 19917.6,2068.4 19913.8,2068.49C19908.3,2068.49 19904.1,2070.41 19901.1,2074.24C19898.1,2078.07 19896.6,2083.62 19896.6,2090.87L19896.6,2092.85C19896.6,2099.92 19898.1,2105.35 19901,2109.16C19904,2112.98 19908.3,2114.89 19913.8,2114.89M19958.8,2092.34C19958.8,2099.15 19960.4,2104.59 19963.7,2108.71C19966.8,2112.75 19971.6,2115.06 19976.7,2114.89C19981.8,2115.07 19986.6,2112.72 19989.6,2108.62C19992.9,2104.46 19994.5,2098.61 19994.5,2091.09C19994.5,2084.37 19992.9,2078.92 19989.6,2074.75C19986.5,2070.8 19981.7,2068.49 19976.6,2068.49C19971.6,2068.49 19966.8,2070.76 19963.7,2074.67C19960.4,2078.78 19958.8,2084.67 19958.8,2092.34M19948,2091.09C19947.9,2085.47 19949.2,2079.91 19951.7,2074.89C19953.9,2070.28 19957.4,2066.41 19961.8,2063.78C19966.3,2061.13 19971.4,2059.78 19976.6,2059.88C19985.1,2059.88 19992,2062.77 19997.3,2068.55C20002.6,2074.33 20005.2,2082.02 20005.2,2091.6L20005.2,2092.34C20005.3,2097.88 20004.1,2103.38 20001.8,2108.4C19999.5,2112.97 19996,2116.81 19991.7,2119.48C19987.2,2122.16 19982,2123.53 19976.7,2123.44C19968.1,2123.44 19961.3,2120.55 19955.9,2114.78C19950.7,2109 19948,2101.35 19948,2091.84L19948,2091.09ZM20028.9,2061.02L20029.2,2068.72C20033.7,2062.97 20040.7,2059.69 20048,2059.88C20061.4,2059.88 20068,2067.19 20068.1,2081.81L20068.1,2122.31L20057.4,2122.31L20057.4,2081.75C20057.4,2077.33 20056.3,2074.06 20054.3,2071.95C20052.3,2069.84 20049.1,2068.78 20044.8,2068.78C20041.5,2068.71 20038.3,2069.66 20035.6,2071.5C20033,2073.32 20030.8,2075.78 20029.4,2078.64L20029.4,2122.31L20018.7,2122.31L20018.7,2061.02L20028.9,2061.02ZM20092.3,2092.34C20092.3,2099.15 20093.9,2104.59 20097.2,2108.71C20100.3,2112.77 20105.1,2115.08 20110.2,2114.89C20115.3,2115.03 20120.1,2112.69 20123.2,2108.62C20126.4,2104.46 20128,2098.62 20128,2091.09C20128,2084.37 20126.4,2078.92 20123.1,2074.75C20120,2070.8 20115.2,2068.49 20110.1,2068.49C20105.1,2068.49 20100.3,2070.76 20097.2,2074.67C20093.9,2078.78 20092.3,2084.67 20092.3,2092.34M20081.5,2091.09C20081.4,2085.48 20082.6,2079.93 20085.1,2074.89C20087.4,2070.34 20090.9,2066.49 20095.2,2063.78C20099.7,2061.14 20104.9,2059.8 20110.1,2059.88C20118.6,2059.88 20125.5,2062.77 20130.8,2068.55C20136.1,2074.33 20138.8,2082.02 20138.8,2091.6L20138.8,2092.34C20138.9,2097.9 20137.7,2103.41 20135.2,2108.4C20133,2112.98 20129.5,2116.83 20125.2,2119.48C20120.7,2122.16 20115.5,2123.53 20110.2,2123.44C20101.6,2123.44 20094.8,2120.55 20089.4,2114.78C20084.2,2109 20081.5,2101.35 20081.5,2091.84L20081.5,2091.09ZM20162.3,2061.02L20162.6,2067.81C20167.2,2062.52 20173.5,2059.88 20181.3,2059.88C20190,2059.88 20196.1,2063.16 20199.2,2069.73C20201.3,2066.74 20204.1,2064.3 20207.4,2062.59C20211.1,2060.7 20215.2,2059.76 20219.3,2059.88C20233,2059.88 20240,2067 20240.3,2081.23L20240.3,2122.31L20229.5,2122.31L20229.5,2081.86C20229.5,2077.48 20228.5,2074.2 20226.5,2072.02C20224.4,2069.86 20221,2068.78 20216.1,2068.78C20212.5,2068.64 20208.9,2069.89 20206.2,2072.26C20203.5,2074.68 20201.9,2078.04 20201.6,2081.64L20201.6,2122.31L20190.8,2122.31L20190.8,2082.15C20190.8,2073.24 20186.3,2068.78 20177.4,2068.78C20170.3,2068.78 20165.5,2071.71 20162.9,2077.56L20162.9,2122.31L20152.2,2122.31L20152.2,2061.02L20162.3,2061.02ZM20277.1,2106.96L20291.7,2061.02L20303.2,2061.02L20277.9,2131.78C20274,2141.96 20267.8,2147.06 20259.3,2147.07L20257.2,2146.9L20253.2,2146.16L20253.2,2137.67L20256.1,2137.89C20259.8,2137.89 20262.6,2137.18 20264.6,2135.73C20266.7,2134.3 20268.4,2131.68 20269.7,2127.86L20272.1,2121.63L20249.6,2061.02L20261.4,2061.02L20277.1,2106.96ZM20165,1602.81L20073.5,1602.81L20073.5,1542.65L20165,1542.65L20165,1602.81ZM18884,1542.35L18976,1542.35C18977,1545.4 18977.2,1597.45 18976.3,1602.79C18975.2,1602.85 18974,1603 18972.8,1603C18944.5,1603.02 18916.1,1603.02 18887.7,1603C18886.5,1603 18885.3,1602.81 18884,1602.71L18884,1542.35ZM19793.8,1771.97L19793.8,1871.45L19867.6,1871.45C19867.9,1873.67 19868.3,1875.78 19868.7,1877.87C19869.2,1880.13 19869.7,1882.37 19870.1,1884.61C19873.5,1900.29 19883.2,1910 19898.1,1915.04C19906.4,1917.8 19915.1,1919.45 19923.9,1919.95C19935.9,1920.72 19948,1920.86 19960,1918.65C19966.8,1917.54 19973.3,1915.3 19979.3,1912.04C19990,1905.9 19994.4,1895.86 19991.5,1883.85C19989.8,1876.51 19984.7,1870.42 19977.7,1867.58C19972.1,1865.06 19966.4,1862.98 19960.5,1861.34C19938.3,1855.31 19915.9,1849.45 19893.6,1843.72C19875.1,1839.01 19856.8,1833.83 19839.6,1825.33C19833.1,1822.14 19826.9,1818.47 19820.9,1814.35C19806,1803.99 19797.3,1789.54 19793.8,1771.97M20599.7,1985.86L20594.7,1985.86L20594.7,1893.11L20686,1893.11L20686,1986.09C20684.4,1986.01 20682.8,1985.87 20681.2,1985.87C20654,1985.86 20626.9,1985.86 20599.7,1985.86M18975.5,1985.82L18970.9,1985.82C18943.5,1985.82 18916.2,1985.82 18888.9,1985.83C18887.3,1985.83 18885.6,1985.99 18884,1986.09L18884,1640.7C18885.6,1640.77 18887.3,1640.89 18888.9,1640.89C18916.1,1640.9 18943.3,1640.9 18970.5,1640.89L18975.2,1640.89C18976.1,1643.97 18976.5,1979.75 18975.5,1985.82M20161.2,1640.86L20210.3,1640.86C20210.3,1638.95 20210.2,1637.4 20210.3,1635.96C20210.6,1623.05 20210.6,1610.13 20211.2,1597.23C20211.6,1587.59 20213.1,1578.02 20215.7,1568.72C20223.1,1542.28 20239.5,1524.78 20266.2,1517.53C20278.4,1514.26 20290.8,1512.29 20303.4,1511.66C20304.3,1511.62 20312.7,1510.98 20321.5,1510.98C20331,1510.98 20340.8,1511.62 20341.7,1511.69C20347,1512.12 20352.2,1512.45 20357.7,1512.84L20357.7,1586.18C20356.8,1586.18 20355.9,1586.22 20355,1586.17C20346.9,1585.84 20338.8,1585.39 20330.7,1585.19C20327.7,1585.19 20324.7,1585.42 20321.8,1585.88C20308.1,1587.62 20302,1598.92 20301.4,1608.36C20300.8,1618.91 20301.2,1629.81 20301.2,1640.86C20306.1,1640.86 20310.9,1640.71 20315.7,1640.76C20320.6,1640.79 20325.5,1640.76 20330.3,1640.76L20345,1640.76C20349.9,1640.76 20354.7,1640.86 20359.5,1640.86L20402.7,1640.86C20427.5,1725.16 20452.4,1809.53 20477.3,1893.96C20482.3,1880.22 20485.9,1866.15 20489.9,1852.2C20493.9,1838.1 20497.8,1823.95 20501.7,1809.83C20505.6,1795.71 20509.6,1781.6 20513.5,1767.48C20517.5,1753.48 20521.3,1739.49 20525.2,1725.48C20529.1,1711.36 20533.1,1697.25 20537,1683.14C20541,1669.03 20544.9,1655.08 20548.9,1640.86L20644.5,1640.86C20644,1642.45 20643.6,1643.65 20643.2,1644.98C20616.7,1721.28 20590.2,1797.58 20563.7,1873.88C20548.5,1917.73 20533.3,1961.59 20517.8,2005.35C20509.7,2028.26 20500.8,2050.91 20490.1,2072.77C20486.3,2080.68 20481.9,2088.36 20477.4,2095.94C20470.7,2107.31 20460.4,2114.28 20448.2,2118.69C20438.3,2122.12 20428.1,2124.33 20417.7,2125.28C20413.7,2125.7 20409.7,2126.33 20405.7,2126.85L20368.3,2126.85C20364.1,2126.39 20359.8,2125.9 20355.5,2125.42C20354.3,2125.3 20353.1,2125.23 20351.7,2125.1L20351.7,2053.11C20353.2,2053.11 20354.6,2053.03 20356,2053.11C20367.9,2053.75 20379.8,2054.04 20391.6,2051.91C20404,2049.68 20413.6,2043.64 20418.9,2031.81C20422.3,2024 20425.2,2015.94 20428.2,2007.95C20429.2,2004.84 20429.1,2001.46 20427.8,1998.45C20393.4,1900.53 20359.1,1802.6 20324.8,1704.65L20301.2,1704.65L20301.2,1986.09L20211.8,1986.09C20211.2,1977.83 20211.7,1966.73 20211.6,1958.37C20211.5,1949.96 20211.6,1941.52 20211.6,1933.1L20211.6,1704.7L20165.9,1704.7L20165.9,1986.09L20075.1,1986.09L20075.1,1902.06C20073.5,1908.95 20071.2,1915.64 20068.1,1922C20056.3,1946.22 20037.3,1962.84 20012.6,1972.9C19998.6,1978.58 19984,1981.84 19969.2,1983.73C19948.8,1986.29 19928.1,1986.77 19907.6,1985.17C19885.2,1983.5 19863.4,1979.69 19843.1,1969.79C19820.8,1958.88 19804.2,1943.22 19793.8,1922.58L19793.8,1986.09C19793.8,1986.31 19735.6,1986.09 19706.4,1986.09L19706.4,1930.97C19706.1,1930.86 19705.8,1930.75 19705.5,1930.62C19704.6,1931.91 19703.8,1933.17 19702.9,1934.46C19685.7,1960.46 19661.9,1976.73 19631.4,1983.26C19618,1986.14 19604.3,1986.56 19590.6,1985.8C19577.2,1985.05 19564,1982.99 19551.2,1978.46C19520.9,1967.63 19501.7,1945.97 19492.2,1915.4C19488.1,1902.28 19485.7,1888.71 19484.9,1875C19484.8,1872.96 19484.6,1870.93 19484.5,1868.89C19484.4,1908.61 19484.2,1941.8 19484,1982.05L19484,1986.09L19391.8,1986.09L19391.8,1776.44C19391.8,1767.72 19391.2,1759.06 19388.8,1750.63C19383.4,1731.86 19369.6,1720.42 19350.2,1718.32C19341.7,1717.29 19333.1,1717.7 19324.8,1719.54C19307.6,1723.49 19295.9,1734.17 19289,1750.36C19284.8,1760.36 19283.1,1770.93 19282.5,1781.71C19282.4,1784.83 19282.4,1787.96 19282.4,1791.09L19282.4,1986.09L19191.5,1986.09L19191.5,1953.72C19191.5,1890.23 19191.6,1862.23 19191.5,1798.75C19191.5,1788.55 19191.3,1778.35 19190.6,1768.19C19190.1,1761.97 19189.1,1755.81 19187.4,1749.8C19182.7,1733.6 19171.8,1723.67 19155.4,1720.23C19142.5,1717.54 19129.1,1718.13 19116.5,1721.96C19099.1,1727.08 19088.2,1738.63 19084.5,1756.45C19083.3,1762.85 19082.4,1769.32 19082,1775.82C19081.7,1780.43 19081.5,1785.06 19081.7,1789.68L19081.7,1986.09L18990.5,1986.09L18990.5,1640.86L19077.7,1640.86L19077.7,1697.84C19077.9,1697.95 19078.2,1698.05 19078.4,1698.12C19079.1,1697.23 19079.8,1696.36 19080.4,1695.47C19085.3,1688.77 19089.9,1681.89 19095.1,1675.43C19108.5,1658.66 19126.1,1648.63 19146.9,1644.15C19168.1,1639.54 19190.1,1639.77 19211.2,1644.82C19232.6,1649.86 19249.1,1661.69 19260.7,1680.31C19264.4,1686.26 19267.6,1692.58 19271.3,1699.16C19272,1697.99 19272.9,1696.84 19273.6,1695.64C19281,1683.46 19290.5,1672.69 19301.7,1663.81C19315.4,1653.28 19330.9,1647.25 19347.5,1643.88C19369.2,1639.27 19391.7,1640.17 19412.9,1646.51C19442.5,1655.37 19472.5,1682.98 19480.5,1720.45C19481.8,1726.04 19482.7,1731.71 19483.2,1737.42C19483.2,1687.59 19483.3,1642.18 19483.3,1640.86L19575.5,1640.86C19575.6,1642.58 19575.7,1746.36 19575.7,1800.86L19575.7,1844.07C19575.8,1854.16 19576.5,1864.16 19578.9,1874.01C19583.9,1895.24 19596.8,1907.47 19618.2,1910.8C19630.8,1912.82 19643.8,1911.94 19656,1908.23C19675.2,1902.38 19687.8,1889.36 19695,1870.82C19698.7,1861.15 19700.8,1850.98 19701.5,1840.66C19702.1,1832.67 19702.4,1824.66 19702.4,1816.64C19702.5,1757.11 19702.4,1642.85 19702.4,1640.86L19793.7,1640.86C19793.7,1641.38 19793.8,1678.12 19793.8,1729.3C19801.1,1693.95 19826.5,1669.01 19852.2,1656.11C19865.7,1649.51 19880.1,1645.14 19895,1643.19C19921.1,1639.57 19947.6,1640.32 19973.5,1645.41C19988.6,1648.32 20003.2,1653.4 20016.8,1660.5C20038.2,1671.6 20052.5,1688.71 20060.7,1711.2C20064.5,1721.9 20067.1,1732.99 20068.4,1744.27C20068.6,1745.84 20068.6,1747.43 20068.6,1749.01L19984.4,1749.01C19984.2,1747.38 19983.9,1745.9 19983.7,1744.42C19980.6,1724.77 19969.1,1712.93 19950.1,1708.48C19933.8,1704.77 19916.8,1704.94 19900.6,1708.97C19894,1710.58 19888,1713.98 19883.2,1718.78C19872.2,1729.56 19874.2,1749.91 19889.9,1756.41C19898.1,1759.76 19906.5,1762.53 19915.1,1764.7C19936.6,1770.11 19958.1,1774.98 19979.5,1780.15C19995.3,1783.95 20010.5,1788.97 20025,1796.34C20037.7,1802.8 20049.2,1810.73 20058.6,1821.72C20066.5,1831.05 20072.2,1842.07 20075.1,1853.94L20075.1,1640.86L20161.2,1640.86Z" style="fill:white;"/>
        </g>
    </g>
</svg>
